/* XPM */
static char * bitcoin32_xpm[] = {
"32 31 201 2",
"  	c None",
". 	c #CCCDCD",
"+ 	c #CDCDCD",
"@ 	c #CACACA",
"# 	c #C8C9C9",
"$ 	c #C1C2C2",
"% 	c #C0C1C1",
"& 	c #BEBFBF",
"* 	c #BFC0BF",
"= 	c #C3C4C3",
"- 	c #C9CACA",
"; 	c #CDCECE",
"> 	c #CFCFCF",
", 	c #C7C8C8",
"' 	c #C2C3C3",
") 	c #C0C1C0",
"! 	c #BDBEBD",
"~ 	c #BFBFBF",
"{ 	c #C3C3C2",
"] 	c #C3C3C3",
"^ 	c #C4C5C4",
"/ 	c #D6D6D6",
"( 	c #D0D0D0",
"_ 	c #C7C7C7",
": 	c #C5C5C5",
"< 	c #C3C3C1",
"[ 	c #C2C2C2",
"} 	c #C2C2C1",
"| 	c #C2C3C2",
"1 	c #C0C0BF",
"2 	c #C1C1BF",
"3 	c #C1C2C1",
"4 	c #C9C9C9",
"5 	c #D2D2D2",
"6 	c #D5D5D5",
"7 	c #D8D8D8",
"8 	c #D4D4D4",
"9 	c #CFD0CF",
"0 	c #C8C8C7",
"a 	c #C6C6C5",
"b 	c #C5C5C4",
"c 	c #C5C6C5",
"d 	c #C4C4C4",
"e 	c #C1C1C1",
"f 	c #C1C1C0",
"g 	c #BEBEBE",
"h 	c #C4C4C3",
"i 	c #C5C4C4",
"j 	c #D1D1D1",
"k 	c #CDCDCC",
"l 	c #C8C9C8",
"m 	c #C6C7C7",
"n 	c #D6D6D5",
"o 	c #D3D3D3",
"p 	c #F9F9F9",
"q 	c #EEEEEE",
"r 	c #C0C0C0",
"s 	c #C4C5C5",
"t 	c #C8CAC9",
"u 	c #CACBCA",
"v 	c #D7D7D7",
"w 	c #CCCCCC",
"x 	c #D6D7D6",
"y 	c #D5D5D4",
"z 	c #E9E9E8",
"A 	c #F5F5F4",
"B 	c #DFDFDF",
"C 	c #CACBCB",
"D 	c #CECFCE",
"E 	c #CECECE",
"F 	c #E8E9E8",
"G 	c #FFFFFF",
"H 	c #F6F6F6",
"I 	c #F4F4F3",
"J 	c #F8F8F7",
"K 	c #DCDDDC",
"L 	c #E3E3E3",
"M 	c #F0F0F0",
"N 	c #E1E1E1",
"O 	c #EDEDED",
"P 	c #F8F8F8",
"Q 	c #FDFDFD",
"R 	c #E0E0E0",
"S 	c #E2E2E2",
"T 	c #F7F7F7",
"U 	c #D9D9D8",
"V 	c #CBCBCB",
"W 	c #BBBBBB",
"X 	c #BDBDBD",
"Y 	c #C8C8C8",
"Z 	c #E6E5E5",
"` 	c #FEFEFE",
" .	c #C6C6C6",
"..	c #E4E4E3",
"+.	c #F1F1F1",
"@.	c #C9C9C8",
"#.	c #E7E7E6",
"$.	c #E6E6E5",
"%.	c #E9E9E9",
"&.	c #F4F4F4",
"*.	c #FCFCFB",
"=.	c #DEDEDE",
"-.	c #9D9D9D",
";.	c #8D8D8D",
">.	c #E1E0E0",
",.	c #DADAD9",
"'.	c #D4D4D3",
").	c #EEEEED",
"!.	c #DBDBD9",
"~.	c #A2A2A2",
"{.	c #919191",
"].	c #EDEDEC",
"^.	c #FCFCFC",
"/.	c #F2F2F2",
"(.	c #E8E8E7",
"_.	c #ECECEC",
":.	c #FDFDFE",
"<.	c #8B8B8B",
"[.	c #797979",
"}.	c #E7E7E7",
"|.	c #EAEAE9",
"1.	c #929292",
"2.	c #545454",
"3.	c #7A7A7A",
"4.	c #F3F3F3",
"5.	c #4A4A4A",
"6.	c #9A9A9A",
"7.	c #CECECF",
"8.	c #ECECEB",
"9.	c #EBEBEA",
"0.	c #EFEFEE",
"a.	c #F6F6F5",
"b.	c #D1D0D0",
"c.	c #CBCACA",
"d.	c #B7B7B7",
"e.	c #676767",
"f.	c #D7D7D6",
"g.	c #F9FAF9",
"h.	c #7C7B7B",
"i.	c #393939",
"j.	c #B0AFAF",
"k.	c #E5E5E5",
"l.	c #CFCECE",
"m.	c #1A1B1B",
"n.	c #767676",
"o.	c #D1D1D2",
"p.	c #DBDCDB",
"q.	c #D3D3D2",
"r.	c #CDCECD",
"s.	c #686868",
"t.	c #242424",
"u.	c #A6A6A6",
"v.	c #E4E4E4",
"w.	c #D2D1D1",
"x.	c #A1A1A1",
"y.	c #0D0D0D",
"z.	c #454545",
"A.	c #CECFCF",
"B.	c #CDCFCE",
"C.	c #D8D9D8",
"D.	c #CBCBCA",
"E.	c #B9B9B9",
"F.	c #323232",
"G.	c #505050",
"H.	c #BABABA",
"I.	c #C8C7C6",
"J.	c #C3C3C4",
"K.	c #C5C6C6",
"L.	c #C8C7C7",
"M.	c #CACAC9",
"N.	c #B8B8B8",
"O.	c #494949",
"P.	c #3F3F3F",
"Q.	c #DADADA",
"R.	c #D0D0CF",
"S.	c #C6C7C6",
"T.	c #C7C7C6",
"U.	c #404040",
"V.	c #222222",
"W.	c #707070",
"X.	c #D9D9D9",
"Y.	c #C8C8C9",
"Z.	c #212121",
"`.	c #050505",
" +	c #272726",
".+	c #787879",
"++	c #BCBCBD",
"@+	c #D0D0D1",
"#+	c #BDBEBE",
"$+	c #777777",
"%+	c #232323",
"&+	c #070707",
"*+	c #000000",
"=+	c #090909",
"-+	c #383838",
";+	c #696A6A",
">+	c #858686",
",+	c #929393",
"'+	c #868686",
")+	c #6A6A6A",
"!+	c #3A3A3A",
"                              . +                               ",
"                      @ # $ % & * % = - ;                       ",
"                  > , ' ) ! ~ * ! * { ] ^ @ >                   ",
"              / ( _ : < [ } | } 1 2 { } { 3 4 5 6               ",
"            7 8 9 0 a b c d ' e f g $ h i h 0 5 j 6             ",
"          / 6 6 8 k l l m n o / p q r s t u j 8 o o v           ",
"        o o 8 / 6 j w - @ x y { z A B 0 C > 5 8 8 j o 5         ",
"        5 j 5 o 5 5 D E F G H I J K L M + ( 5 5 j ( ( o         ",
"      w > > > ( ( / N O G G G G G P G Q R ( 5 ( ( > E + >       ",
"      + w E E E E S Q G G G G G G G G G T U ( E E + w V w W     ",
"    X Y @ w + V V Z ` G G G G G G G G G G M / V V V @  . . .    ",
"    ] d _ Y Y Y @ ..+.` G G G G G G G G G G q V Y _ : ] [ d     ",
"     .e ] d [ ] @.#.v L $.%.&.` G Q *.Q G G =._  .d ] [ [ ~ -.  ",
"  ;.[ e e r ~ ] d v >.8 y ,.'.).G ..!...&.G 8 ] ] [ [ e r g ~.  ",
"  {.[ ~ r e e e e _ ].Q ^.H /.P G M q (._.:.w r r e e r r ~ ~.  ",
"  <.d e [ e e e [ k +.G G G Q ^.G G G G G z d e r e [ [ ] r -.  ",
"  [.: [ [ e r ] : d }.` G ` }.+ o T G G G |._ [ e ] d : d e 1.  ",
"  2._ e [ ] :  ._ : ,.Q G G G P &.G G G G O + _ d  .: : : [ 3.  ",
"    & d d  .4 V w @ k P G 4.#...(.T G G Q q 5 V Y Y Y Y  .] 5.  ",
"    6.4 _ @ w E ( > 7.8.G P 9.N 0.a.^.G T (.b.+ w V c.V 4 d.    ",
"    e.E w + E > ( 5 5 f.8.T g.G G G G G ^.S ( > > + w w > h.    ",
"    i.j.j + E > > 5 o 5 B 6 j 6 %.z k.J G =.j j j > > l.[ m.    ",
"      n.l.5 j ( j o o o.p.q.s e r.H ^.G q 8 5 5 o j E v s.      ",
"      t.u.6 8 j j o o ( w V s $ v.` ` +.5 j 5 5 5 w.8 x.y.      ",
"        z.X 6 o 5 E A.B.V _ s ' d C.> @ + D.> 5 5 8 E.F.        ",
"          G.H.7 5 4 I.0 @.: = ' ] J.K.L. .r.M.5 6 N.O.          ",
"            P.~.Q.R.u S.T.d ] r = | ^ b  .V ( Q.u.U.            ",
"              V.W. .6 w  .d | f = { Y @.> X.Y.W.Z.              ",
"                `. +.+++A.Y : d d  .V @+#+$+%+&+                ",
"                    *+=+-+;+>+1.,+'+)+!+=+*+                    ",
"                          *+*+*+*+*+*+                          "};
